# xmcd
#
# Track frame offsets:
#	150
#	16355
#	32685
#	45962
#	64166
#	84205
#	101121
#	120471
#	138811
#	159208
#	176292
#
# Disc length: 2712 seconds
#
# Revision: 9
# Processed by: cddbd v1.5.2PL0 Copyright (c) Steve Scherf et al.
# Submitted via: audiograbber 1.83.01
#
DISCID=760a960b
DTITLE=George Harrison - The Dark Horse Years 1976-1992 [CD 4) - Gone Troppo [r
DTITLE=emastered 2004]
DYEAR=1982
DGENRE=Rock
TTITLE0=Wake Up My Love
TTITLE1=That's The Way It Goes
TTITLE2=I Really Love You
TTITLE3=Greece
TTITLE4=Gone Troppo
TTITLE5=Mystical One
TTITLE6=Unknown Delight
TTITLE7=Baby Don't Run Away
TTITLE8=Dream Away
TTITLE9=Circles
TTITLE10=Mystical One [demo version] [additional track]
EXTD=
EXTT0=
EXTT1=
EXTT2=
EXTT3=
EXTT4=
EXTT5=
EXTT6=
EXTT7=
EXTT8=
EXTT9=
EXTT10=
PLAYORDER=
